<?xml version="1.0" encoding="UTF-8"?>
<svg version="1.1" xmlns="http://www.w3.org/2000/svg" width="500" height="500">
<path d="M0 0 C0.98484375 -0.00128906 1.9696875 -0.00257813 2.984375 -0.00390625 C4.02078125 -0.00003906 5.0571875 0.00382813 6.125 0.0078125 C7.67960937 0.00201172 7.67960937 0.00201172 9.265625 -0.00390625 C10.25046875 -0.00261719 11.2353125 -0.00132812 12.25 0 C13.16007812 0.00112793 14.07015625 0.00225586 15.0078125 0.00341797 C17.125 0.1328125 17.125 0.1328125 18.125 1.1328125 C18.28082303 2.47296471 18.37544142 3.82040153 18.44140625 5.16796875 C18.48330078 5.97685547 18.52519531 6.78574219 18.56835938 7.61914062 C18.60767578 8.46927734 18.64699219 9.31941406 18.6875 10.1953125 C18.73068359 11.04931641 18.77386719 11.90332031 18.81835938 12.78320312 C18.92476702 14.89953287 19.02541731 17.01615063 19.125 19.1328125 C19.67349609 19.40270996 20.22199219 19.67260742 20.78710938 19.95068359 C21.50705078 20.30727051 22.22699219 20.66385742 22.96875 21.03125 C23.68224609 21.38364746 24.39574219 21.73604492 25.13085938 22.09912109 C27.34428355 23.24648127 29.28354676 24.4448137 31.125 26.1328125 C31.125 26.7928125 31.125 27.4528125 31.125 28.1328125 C31.785 28.1328125 32.445 28.1328125 33.125 28.1328125 C34.59765625 30.21484375 34.59765625 30.21484375 36.1875 32.9453125 C36.97833984 34.28529297 36.97833984 34.28529297 37.78515625 35.65234375 C39.125 38.1328125 39.125 38.1328125 40.125 41.1328125 C72.3 41.6278125 72.3 41.6278125 105.125 42.1328125 C106.58653846 74.28665865 106.58653846 74.28665865 105.125 80.1328125 C97.535 80.1328125 89.945 80.1328125 82.125 80.1328125 C82.125 74.5228125 82.125 68.9128125 82.125 63.1328125 C68.265 63.4628125 54.405 63.7928125 40.125 64.1328125 C38.805 66.7728125 37.485 69.4128125 36.125 72.1328125 C34.30078125 74.70703125 34.30078125 74.70703125 32.4375 76.8203125 C31.83550781 77.52542969 31.23351562 78.23054688 30.61328125 78.95703125 C28.125 81.1328125 28.125 81.1328125 19.125 86.1328125 C18.795 128.7028125 18.465 171.2728125 18.125 215.1328125 C30.995 215.1328125 43.865 215.1328125 57.125 215.1328125 C57.1559375 220.051875 57.1559375 220.051875 57.1875 225.0703125 C57.196604 226.10534912 57.20570801 227.14038574 57.21508789 228.20678711 C57.21883423 229.42120483 57.21883423 229.42120483 57.22265625 230.66015625 C57.22789307 231.49281006 57.23312988 232.32546387 57.23852539 233.18334961 C57.125 235.1328125 57.125 235.1328125 56.125 236.1328125 C53.02529236 236.23348284 49.94782329 236.2689555 46.84765625 236.26220703 C45.38681107 236.26483551 45.38681107 236.26483551 43.89645386 236.26751709 C40.66011806 236.27193749 37.4238364 236.26899695 34.1875 236.265625 C31.94930002 236.26629799 29.71110012 236.26726796 27.47290039 236.26852417 C22.77522081 236.2700014 18.0775602 236.26784579 13.37988281 236.26318359 C7.34339386 236.2574863 1.30694936 236.26076517 -4.72953796 236.26675606 C-9.35331561 236.270361 -13.97708264 236.26922339 -18.6008606 236.26662827 C-20.82732142 236.26595881 -23.0537832 236.26678806 -25.28024292 236.26910782 C-28.38607355 236.27163324 -31.4918311 236.2677953 -34.59765625 236.26220703 C-35.52756378 236.26423126 -36.45747131 236.26625549 -37.41555786 236.26834106 C-43.76073773 236.24707477 -43.76073773 236.24707477 -44.875 235.1328125 C-44.96169432 233.6440939 -44.98203494 232.1513675 -44.97265625 230.66015625 C-44.97015869 229.85054443 -44.96766113 229.04093262 -44.96508789 228.20678711 C-44.95598389 227.17175049 -44.94687988 226.13671387 -44.9375 225.0703125 C-44.916875 221.7909375 -44.89625 218.5115625 -44.875 215.1328125 C-32.005 215.1328125 -19.135 215.1328125 -5.875 215.1328125 C-6.205 172.5628125 -6.535 129.9928125 -6.875 86.1328125 C-9.845 84.4828125 -12.815 82.8328125 -15.875 81.1328125 C-18.36328125 78.95703125 -18.36328125 78.95703125 -20.1875 76.8203125 C-20.80238281 76.12292969 -21.41726562 75.42554688 -22.05078125 74.70703125 C-24.37743363 71.42381087 -26.07539741 67.73201767 -27.875 64.1328125 C-41.735 63.8028125 -55.595 63.4728125 -69.875 63.1328125 C-69.875 68.7428125 -69.875 74.3528125 -69.875 80.1328125 C-77.465 80.1328125 -85.055 80.1328125 -92.875 80.1328125 C-94.36706121 77.14869008 -94.01724377 74.09543778 -94.0078125 70.82421875 C-94.00876923 70.10169418 -94.00972595 69.37916962 -94.01071167 68.63475037 C-94.01139252 67.10570183 -94.00954486 65.57665041 -94.00537109 64.04760742 C-94.00002921 61.70810433 -94.00531524 59.36879391 -94.01171875 57.02929688 C-94.0110578 55.54427041 -94.00977629 54.05924406 -94.0078125 52.57421875 C-94.00983673 51.874142 -94.01186096 51.17406525 -94.01394653 50.45277405 C-93.99923541 47.40054467 -93.84835025 45.05286325 -92.875 42.1328125 C-71.425 41.8028125 -49.975 41.4728125 -27.875 41.1328125 C-26.225 37.8328125 -24.575 34.5328125 -22.875 31.1328125 C-21.885 29.6478125 -21.885 29.6478125 -20.875 28.1328125 C-20.215 28.1328125 -19.555 28.1328125 -18.875 28.1328125 C-18.875 27.4728125 -18.875 26.8128125 -18.875 26.1328125 C-16.7578125 24.66015625 -16.7578125 24.66015625 -14 23.0703125 C-13.09507812 22.54308594 -12.19015625 22.01585937 -11.2578125 21.47265625 C-9.81427252 20.66096082 -8.35625815 19.87344157 -6.875 19.1328125 C-6.81441406 17.84503906 -6.75382812 16.55726563 -6.69140625 15.23046875 C-6.60701753 13.55207091 -6.5223687 11.87368614 -6.4375 10.1953125 C-6.39818359 9.34517578 -6.35886719 8.49503906 -6.31835938 7.61914062 C-6.27646484 6.81025391 -6.23457031 6.00136719 -6.19140625 5.16796875 C-6.15474854 4.419104 -6.11809082 3.67023926 -6.08032227 2.89868164 C-5.64979174 -0.80408566 -3.1911191 0.003955 0 0 Z " fill="#17243F" transform="translate(243.875,131.8671875)"/>
<path d="M0 0 C0.89182983 -0.00281982 1.78365967 -0.00563965 2.70251465 -0.00854492 C4.18153259 -0.00550858 4.18153259 -0.00550858 5.69042969 -0.00241089 C6.7228479 -0.00416321 7.75526611 -0.00591553 8.81896973 -0.00772095 C12.25009821 -0.01214168 15.68117563 -0.00920069 19.11230469 -0.00582886 C21.48502614 -0.00650183 23.85774753 -0.0074718 26.23046875 -0.00872803 C31.21061864 -0.0102053 36.19075063 -0.00804949 41.17089844 -0.00338745 C47.57059148 0.00230985 53.97024258 -0.000969 60.36993408 -0.00695992 C65.27165038 -0.01056473 70.17335665 -0.00942731 75.07507324 -0.00683212 C77.43550623 -0.00616263 79.79594012 -0.00699204 82.15637207 -0.00931168 C85.44899931 -0.0118369 88.74155761 -0.00799944 92.03417969 -0.00241089 C93.02019165 -0.00443512 94.00620361 -0.00645935 95.02209473 -0.00854492 C95.91392456 -0.0057251 96.80575439 -0.00290527 97.72460938 0 C98.50406921 0.00037703 99.28352905 0.00075405 100.08660889 0.0011425 C101.86230469 0.12698364 101.86230469 0.12698364 102.86230469 1.12698364 C103.33976479 6.40125226 103.12059251 11.27166482 100.86230469 16.12698364 C98.53879721 18.90020224 97.31820264 19.97501766 93.86230469 21.12698364 C90.92557961 21.2186302 88.01301023 21.25293762 85.07641602 21.24050903 C83.72976616 21.24072807 83.72976616 21.24072807 82.35591125 21.24095154 C79.38536166 21.24025429 76.41487459 21.23247061 73.44433594 21.22463989 C71.38596125 21.22277505 69.32758611 21.22135146 67.26921082 21.22035217 C61.84899675 21.21653223 56.42880944 21.20670638 51.00860596 21.19564819 C45.47872276 21.18542286 39.94883524 21.18085214 34.41894531 21.17581177 C23.56672001 21.16508367 12.71451457 21.14801349 1.86230469 21.12698364 C1.53230469 20.13698364 1.20230469 19.14698364 0.86230469 18.12698364 C0.20230469 18.12698364 -0.45769531 18.12698364 -1.13769531 18.12698364 C-1.13769531 17.46698364 -1.13769531 16.80698364 -1.13769531 16.12698364 C-1.79769531 16.12698364 -2.45769531 16.12698364 -3.13769531 16.12698364 C-4.88281128 10.89163573 -5.42346061 6.65177941 -5.13769531 1.12698364 C-3.59175962 -0.41895205 -2.15279457 0.00104131 0 0 Z " fill="#111F39" transform="translate(288.1376953125,276.8730163574219)"/>
<path d="M0 0 C0.89182983 -0.00281982 1.78365967 -0.00563965 2.70251465 -0.00854492 C4.18153259 -0.00550858 4.18153259 -0.00550858 5.69042969 -0.00241089 C6.7228479 -0.00416321 7.75526611 -0.00591553 8.81896973 -0.00772095 C12.25009821 -0.01214168 15.68117563 -0.00920069 19.11230469 -0.00582886 C21.48502614 -0.00650183 23.85774753 -0.0074718 26.23046875 -0.00872803 C31.21061864 -0.0102053 36.19075063 -0.00804949 41.17089844 -0.00338745 C47.57059148 0.00230985 53.97024258 -0.000969 60.36993408 -0.00695992 C65.27165038 -0.01056473 70.17335665 -0.00942731 75.07507324 -0.00683212 C77.43550623 -0.00616263 79.79594012 -0.00699204 82.15637207 -0.00931168 C85.44899931 -0.0118369 88.74155761 -0.00799944 92.03417969 -0.00241089 C93.02019165 -0.00443512 94.00620361 -0.00645935 95.02209473 -0.00854492 C95.91392456 -0.0057251 96.80575439 -0.00290527 97.72460938 0 C98.50406921 0.00037703 99.28352905 0.00075405 100.08660889 0.0011425 C101.86230469 0.12698364 101.86230469 0.12698364 102.86230469 1.12698364 C103.34802058 6.49244995 102.92379861 11.1020922 100.86230469 16.12698364 C100.20230469 16.12698364 99.54230469 16.12698364 98.86230469 16.12698364 C98.86230469 16.78698364 98.86230469 17.44698364 98.86230469 18.12698364 C98.20230469 18.12698364 97.54230469 18.12698364 96.86230469 18.12698364 C96.86230469 18.78698364 96.86230469 19.44698364 96.86230469 20.12698364 C92.62937975 21.30899131 88.50075052 21.29740702 84.1340332 21.31985474 C83.25390564 21.32803223 82.37377808 21.33620972 81.46697998 21.34463501 C78.55839716 21.3694215 75.64986278 21.38598433 72.74121094 21.40042114 C71.25012975 21.40840666 71.25012975 21.40840666 69.7289257 21.4165535 C64.4712285 21.44325083 59.21355481 21.46263998 53.95581055 21.4770813 C49.60338423 21.4904418 45.25142439 21.5183382 40.89916992 21.55911255 C35.64254526 21.60835704 30.38634493 21.6331916 25.12949944 21.64030838 C23.12679345 21.64702957 21.12409725 21.66227409 19.1215229 21.68619919 C16.32050058 21.71776475 13.52112366 21.71790103 10.7199707 21.71047974 C9.89331406 21.72688507 9.06665741 21.74329041 8.21495056 21.76019287 C3.94486563 21.71386851 2.3494593 21.51463109 -1.10926819 18.76239014 C-5.26937788 13.35742391 -5.7375506 7.75329209 -5.13769531 1.12698364 C-3.59175962 -0.41895205 -2.15279457 0.00104131 0 0 Z " fill="#111F3A" transform="translate(114.1376953125,276.8730163574219)"/>
<path d="M0 0 C28.05 0 56.1 0 85 0 C85 5.94 85 11.88 85 18 C56.95 18 28.9 18 0 18 C0 12.06 0 6.12 0 0 Z " fill="#12203A" transform="translate(295,249)"/>
<path d="M0 0 C28.05 0 56.1 0 85 0 C85 5.94 85 11.88 85 18 C56.95 18 28.9 18 0 18 C0 12.06 0 6.12 0 0 Z " fill="#13203A" transform="translate(120,249)"/>
<path d="M0 0 C4.54197646 2.65662774 7.94617534 6.20485068 10.3125 10.9375 C11.07378962 17.90873785 10.90857245 24.06942921 7.0625 30.08984375 C2.92039016 34.46309812 -2.5295719 35.63985475 -8.3125 36.4375 C-14.14448581 35.5735021 -18.737733 33.36720192 -22.625 28.875 C-26.50356902 23.35097746 -26.57541919 17.49316505 -25.6875 10.9375 C-23.38051858 6.2033036 -20.01564855 2.87689223 -15.6875 -0.0625 C-10.34145956 -1.84451348 -5.38465192 -1.55150988 0 0 Z " fill="#06B080" transform="translate(257.6875,167.0625)"/>
<path d="M0 0 C18.81 0 37.62 0 57 0 C57 5.94 57 11.88 57 18 C38.19 18 19.38 18 0 18 C0 12.06 0 6.12 0 0 Z " fill="#121F39" transform="translate(309,221)"/>
<path d="M0 0 C18.81 0 37.62 0 57 0 C57 5.94 57 11.88 57 18 C38.19 18 19.38 18 0 18 C0 12.06 0 6.12 0 0 Z " fill="#121F39" transform="translate(134,221)"/>
<path d="M0 0 C0.33 0 0.66 0 1 0 C1 42.57 1 85.14 1 129 C-4.30938329 130.76979443 -6.92774711 131.21651351 -12.296875 131.046875 C-13.30914154 131.01645111 -13.30914154 131.01645111 -14.34185791 130.9854126 C-15.75722043 130.94011542 -17.17241897 130.88939747 -18.58740234 130.83349609 C-20.7572688 130.74971936 -22.92699692 130.68818176 -25.09765625 130.62890625 C-26.47660798 130.58204886 -27.85551712 130.53391703 -29.234375 130.484375 C-30.48444336 130.44022461 -31.73451172 130.39607422 -33.02246094 130.35058594 C-36 130 -36 130 -38 128 C-25.46 128 -12.92 128 0 128 C0 85.76 0 43.52 0 0 Z " fill="#0D1627" transform="translate(239,219)"/>
<path d="M0 0 C13.80340887 -0.02333058 27.6068147 -0.04091354 41.41023922 -0.05181217 C47.81899128 -0.05704166 54.22773015 -0.0641405 60.63647461 -0.07543945 C66.81559441 -0.08626599 72.99470148 -0.09227634 79.17383003 -0.09487724 C81.5370561 -0.09673192 83.90028144 -0.10035332 86.26350212 -0.10573006 C89.56101896 -0.11293738 92.85848247 -0.11399107 96.15600586 -0.11352539 C97.14358887 -0.11712067 98.13117188 -0.12071594 99.14868164 -0.12442017 C100.04195663 -0.1230455 100.93523163 -0.12167084 101.85557556 -0.12025452 C102.63633422 -0.12117631 103.41709288 -0.1220981 104.22151089 -0.12304783 C106 0 106 0 107 1 C107.4857159 6.3654663 107.06149392 10.97510856 105 16 C104.34 16 103.68 16 103 16 C102.505 14.02 102.505 14.02 102 12 C102.66 12 103.32 12 104 12 C104 11.01 104 10.02 104 9 C103.01 8.505 103.01 8.505 102 8 C102.33 7.21625 102.66 6.4325 103 5.625 C104.11866511 3.15667503 104.11866511 3.15667503 104 1 C69.68 1 35.36 1 0 1 C0 0.67 0 0.34 0 0 Z " fill="#5C6065" transform="translate(110,277)"/>
<path d="M0 0 C1.32 0.33 2.64 0.66 4 1 C4 1.33 4 1.66 4 2 C46.57 2.495 46.57 2.495 90 3 C90 3.33 90 3.66 90 4 C59.64 4 29.28 4 -2 4 C-2.33 3.34 -2.66 2.68 -3 2 C-2.01 2 -1.02 2 0 2 C0 1.34 0 0.68 0 0 Z " fill="#7B808F" transform="translate(292,294)"/>
<path d="M0 0 C4.54197646 2.65662774 7.94617534 6.20485068 10.3125 10.9375 C11.00586032 18.42806481 10.78541625 23.78724015 6.3125 29.9375 C5.9825 28.6175 5.6525 27.2975 5.3125 25.9375 C6.3025 25.6075 7.2925 25.2775 8.3125 24.9375 C8.68609096 17.28580369 8.63774449 11.59284229 4.0625 5.1875 C-0.40478069 1.99658522 -5.29914864 0.59461602 -10.6875 -0.0625 C-10.6875 0.5975 -10.6875 1.2575 -10.6875 1.9375 C-13.59350261 3.19414978 -15.48354584 3.9375 -18.6875 3.9375 C-18.6875 4.5975 -18.6875 5.2575 -18.6875 5.9375 C-20.6675 6.9275 -20.6675 6.9275 -22.6875 7.9375 C-21.19271886 4.13260255 -18.99307786 2.27559165 -15.6875 -0.0625 C-10.34145956 -1.84451348 -5.38465192 -1.55150988 0 0 Z " fill="#1B9B80" transform="translate(257.6875,167.0625)"/>
<path d="M0 0 C0.33 0 0.66 0 1 0 C1.64217298 9.67846426 2.16831537 19.29381339 2 29 C1.34 29.33 0.68 29.66 0 30 C-1.0031921 26.99042369 -1.12896682 24.96134604 -1.1328125 21.81640625 C-1.13410156 20.80642578 -1.13539063 19.79644531 -1.13671875 18.75585938 C-1.13285156 17.70205078 -1.12898438 16.64824219 -1.125 15.5625 C-1.12886719 14.51255859 -1.13273437 13.46261719 -1.13671875 12.38085938 C-1.13542969 11.36958984 -1.13414062 10.35832031 -1.1328125 9.31640625 C-1.13168457 8.39287354 -1.13055664 7.46934082 -1.12939453 6.51782227 C-1.01019248 4.19833034 -0.65474662 2.22074189 0 0 Z " fill="#091327" transform="translate(348,179)"/>
<path d="M0 0 C2.64 0.33 5.28 0.66 8 1 C8 1.99 8 2.98 8 4 C9.72945653 3.85764543 11.45855654 3.71095618 13.1875 3.5625 C14.15042969 3.48128906 15.11335937 3.40007812 16.10546875 3.31640625 C18.78649602 3.02333849 21.3662986 2.57296246 24 2 C19.17136463 5.96637905 15.23774336 6.51981195 9 6 C1.61336254 3.22672508 1.61336254 3.22672508 0 0 Z " fill="#18977D" transform="translate(237,197)"/>
<path d="M0 0 C0.33 0 0.66 0 1 0 C1.1974877 3.08277856 1.38123332 6.1662285 1.5625 9.25 C1.61857422 10.12269531 1.67464844 10.99539062 1.73242188 11.89453125 C1.78076172 12.73886719 1.82910156 13.58320313 1.87890625 14.453125 C1.94960327 15.61569824 1.94960327 15.61569824 2.02172852 16.80175781 C1.99969234 19.03112585 1.6303897 20.86898567 1 23 C-1.475 22.01 -1.475 22.01 -4 21 C-3.34 20.67 -2.68 20.34 -2 20 C-1.13580777 17.40742331 -0.82419068 15.65962293 -0.68359375 12.98828125 C-0.64169922 12.23095703 -0.59980469 11.47363281 -0.55664062 10.69335938 C-0.49766602 9.51483398 -0.49766602 9.51483398 -0.4375 8.3125 C-0.39431641 7.51521484 -0.35113281 6.71792969 -0.30664062 5.89648438 C-0.20072632 3.93118553 -0.09987449 1.96561504 0 0 Z M-3 23 C-2.01 23.495 -2.01 23.495 -1 24 C-1.99 24.495 -1.99 24.495 -3 25 C-3 24.34 -3 23.68 -3 23 Z " fill="#757D93" transform="translate(261,133)"/>
<path d="M0 0 C2.56428515 -0.13559675 5.12135216 -0.23433188 7.6875 -0.3125 C8.40873047 -0.35439453 9.12996094 -0.39628906 9.87304688 -0.43945312 C14.19577396 -0.53814552 15.54532962 -0.37938214 19.01953125 2.51953125 C19.67308594 3.33808594 20.32664062 4.15664062 21 5 C18 5 18 5 15.0625 3.5 C9.95537336 1.15556471 4.49480519 1.75638795 -1 2 C-0.67 1.34 -0.34 0.68 0 0 Z " fill="#02353B" transform="translate(243,165)"/>
<path d="M0 0 C1.32 0.33 2.64 0.66 4 1 C4 1.33 4 1.66 4 2 C9.94 2.33 15.88 2.66 22 3 C22 3.33 22 3.66 22 4 C14.08 4 6.16 4 -2 4 C-2.33 3.34 -2.66 2.68 -3 2 C-2.01 2 -1.02 2 0 2 C0 1.34 0 0.68 0 0 Z " fill="#697180" transform="translate(292,294)"/>
<path d="M0 0 C0.99 0.33 1.98 0.66 3 1 C1.73058503 4.91402949 0.48832306 6.79072873 -3 9 C-3.33 8.01 -3.66 7.02 -4 6 C-2.0625 2.8125 -2.0625 2.8125 0 0 Z " fill="#333D52" transform="translate(277,201)"/>
<path d="M0 0 C0 0.99 0 1.98 0 3 C-0.66 3 -1.32 3 -2 3 C-2.33 4.32 -2.66 5.64 -3 7 C-3.66 7 -4.32 7 -5 7 C-5.33 7.66 -5.66 8.32 -6 9 C-6.33 7.68 -6.66 6.36 -7 5 C-6.34 5 -5.68 5 -5 5 C-4.67 3.68 -4.34 2.36 -4 1 C-2.68 0.67 -1.36 0.34 0 0 Z " fill="#0B1730" transform="translate(228,160)"/>
<path d="M0 0 C0.33 0 0.66 0 1 0 C1.042721 1.66611905 1.04063832 3.33382885 1 5 C0.67 5.33 0.34 5.66 0 6 C-0.07244053 8.01964199 -0.08377188 10.04167124 -0.0625 12.0625 C-0.05347656 13.16722656 -0.04445312 14.27195313 -0.03515625 15.41015625 C-0.02355469 16.26480469 -0.01195312 17.11945313 0 18 C-2.30821663 14.53767506 -2.27000989 13.08201684 -2.25 9 C-2.25515625 7.948125 -2.2603125 6.89625 -2.265625 5.8125 C-2 3 -2 3 0 0 Z " fill="#199D81" transform="translate(234,175)"/>
<path d="M0 0 C-0.33 1.32 -0.66 2.64 -1 4 C-0.34 4.33 0.32 4.66 1 5 C-0.8125 5.6875 -0.8125 5.6875 -3 6 C-4.75 4.5625 -4.75 4.5625 -6 3 C-5.34 3 -4.68 3 -4 3 C-4 2.34 -4 1.68 -4 1 C-2 0 -2 0 0 0 Z " fill="#263346" transform="translate(236,210)"/>
<path d="M0 0 C0.66 0 1.32 0 2 0 C2.25 7.625 2.25 7.625 0 11 C-0.66 10.67 -1.32 10.34 -2 10 C-1.67 9.01 -1.34 8.02 -1 7 C-0.34 7 0.32 7 1 7 C0.34 5.02 -0.32 3.04 -1 1 C-0.67 0.67 -0.34 0.34 0 0 Z " fill="#343D50" transform="translate(388,284)"/>
<path d="M0 0 C0.66 0 1.32 0 2 0 C2 4.62 2 9.24 2 14 C1.01 14 0.02 14 -1 14 C-0.67 13.01 -0.34 12.02 0 11 C0.0685495 9.10529184 0.08480372 7.2083166 0.0625 5.3125 C0.05347656 4.31863281 0.04445312 3.32476562 0.03515625 2.30078125 C0.02355469 1.54152344 0.01195312 0.78226563 0 0 Z " fill="#0E1928" transform="translate(203,252)"/>
<path d="M0 0 C1.32 0 2.64 0 4 0 C4 0.66 4 1.32 4 2 C3.34 2 2.68 2 2 2 C2 2.66 2 3.32 2 4 C1.01 4.33 0.02 4.66 -1 5 C-1 1 -1 1 0 0 Z " fill="#4C5464" transform="translate(209,293)"/>
</svg>
