<svg version="1.1" xmlns="http://www.w3.org/2000/svg" style="display: block;" viewBox="0 0 2048 2048" width="1024" height="1024" preserveAspectRatio="none">
<path transform="translate(0,0)" fill="rgb(88,24,96)" d="M 1020.62 518.579 C 1034.35 517.339 1075.56 519.641 1089.36 520.638 C 1191.67 528.023 1290.08 551.758 1383.06 595.276 L 1383.19 794.611 C 1383.24 847.919 1386.65 905.412 1375.35 957.009 C 1351.01 1068.21 1269.36 1148.54 1178.74 1210.87 C 1149.39 1231.06 1120.51 1247.53 1090.98 1266.56 C 1092.38 1252.79 1090.82 1230.71 1091.83 1214.3 C 1106.13 1206.26 1120.13 1197.42 1133.83 1188.33 C 1229.84 1124.6 1326.69 1038.71 1337.85 916.309 C 1341.42 877.287 1340.04 835.132 1340.06 795.924 C 1340.08 738.626 1340.65 681.07 1339.79 623.846 C 1242.59 583.658 1138.43 562.984 1033.25 563.003 C 922.499 562.828 810.221 579.614 708.059 624.071 L 707.897 796.025 C 707.886 844.759 704.903 903.471 715.684 950.024 C 743.932 1071.99 855.531 1153.49 956.782 1215.55 L 956.887 1266.36 C 824.304 1187.27 681.081 1086.09 666.403 917.995 C 663.46 884.287 664.601 849.546 664.679 815.673 L 664.729 671.322 C 664.644 646.521 664.962 620.08 664.07 595.378 C 678.469 589.328 692.735 583.032 707.212 577.157 C 808.035 536.241 912.266 519.86 1020.62 518.579 z"/>
<path transform="translate(0,0)" fill="rgb(88,24,96)" d="M 1029.8 610.232 C 1038.27 609.435 1045.28 609.47 1053.33 612.634 C 1063.98 616.951 1072.38 625.494 1076.5 636.229 C 1080.67 647.029 1080.1 659.081 1074.95 669.446 C 1068.79 681.985 1059.6 687.74 1047.01 692.023 L 1046.91 747.211 C 1040.84 747.012 1034.81 747.221 1028.74 747.362 L 1028.43 726.113 L 888.766 725.926 C 884.39 735.809 883.046 737.925 874.939 745.307 C 887.046 771.923 898.315 799.832 910.316 826.722 C 923.927 857.219 940.297 890.515 951.64 921.657 C 946.106 938.06 936.21 952.647 923.016 963.854 C 898.29 984.789 871.119 990.984 839.553 988.263 C 801.87 980.888 770.633 955.915 758.829 918.759 C 765.658 899.908 779.531 871.261 788.001 852.45 C 804.208 816.728 820.012 780.825 835.41 744.747 C 825.013 734.942 818.793 723.962 822.073 709.203 C 823.986 700.684 829.299 693.317 836.777 688.81 C 845.037 683.835 854.974 682.459 864.275 685.004 C 876.773 688.375 882.056 696.031 887.786 706.474 C 919.589 707.051 951.399 707.245 983.207 707.057 C 998.338 707.076 1013.24 707.763 1028.36 707.258 L 1028.08 690.995 C 987.359 681.428 983.399 623.475 1029.8 610.232 z M 849.176 703.612 C 842.095 706.638 838.699 714.742 841.506 721.913 C 844.314 729.084 852.31 732.727 859.563 730.142 C 864.458 728.397 868.015 724.126 868.846 718.997 C 869.677 713.868 867.651 708.693 863.558 705.491 C 859.465 702.29 853.954 701.57 849.176 703.612 z M 1035.47 628.512 C 1024.22 629.777 1015.64 639.185 1015.43 650.505 C 1015.3 657.181 1018.14 663.569 1023.18 667.952 C 1028.21 672.335 1034.93 674.262 1041.52 673.216 C 1053.63 671.294 1061.99 660.053 1060.35 647.904 C 1058.7 635.754 1047.65 627.143 1035.47 628.512 z M 783.971 913.182 C 804.678 912.928 825.388 912.909 846.095 913.125 C 844.946 899.841 845.647 882.865 845.703 869.154 L 845.512 804.309 C 845.475 799.288 845.636 778.345 844.346 774.62 C 828.147 809.281 812.369 844.137 797.015 879.181 C 795.222 883.298 783.389 909.793 782.764 912.57 L 783.971 913.182 z M 928.381 913.357 C 920.45 895.283 871.003 779.137 864.175 771.725 C 864.399 818.785 863.675 866.296 864.405 913.321 C 885.729 913.003 907.057 913.015 928.381 913.357 z M 786.157 931.961 C 815.154 972.861 864 982.873 905.284 953.343 C 906.336 952.589 907.371 951.814 908.39 951.017 C 916.529 944.079 919.766 941.382 925.46 931.968 L 786.157 931.961 z"/>
<path transform="translate(0,0)" fill="rgb(88,24,96)" d="M 1024.68 1013.6 C 1028.2 1015.72 1107.85 1122.43 1113.46 1132.27 C 1092.78 1132.66 1073.06 1131.95 1052.13 1133.04 C 1050.58 1181.9 1051.96 1238.79 1051.95 1288.22 C 1044.74 1292.59 1037.37 1297.11 1029.96 1301.09 C 1025.17 1303.65 1025.08 1303.8 1020.61 1302.44 C 1012.84 1298.27 1004.35 1293.13 996.622 1288.7 C 997.418 1238.08 996.537 1183.15 996.412 1132.34 C 975.75 1132.01 955.084 1132.22 934.433 1132.97 C 940.785 1120.17 1014.72 1022.12 1024.68 1013.6 z"/>
<path transform="translate(0,0)" fill="rgb(12,222,227)" d="M 1035.53 769.264 C 1071.43 768.141 1101.43 796.345 1102.52 832.242 C 1103.62 868.139 1075.4 898.12 1039.5 899.189 C 1003.64 900.257 973.695 872.068 972.6 836.209 C 971.505 800.351 999.672 770.387 1035.53 769.264 z M 1043.47 870.895 C 1063.68 867.825 1077.58 848.959 1074.53 828.747 C 1071.47 808.534 1052.61 794.622 1032.4 797.666 C 1012.17 800.712 998.239 819.59 1001.3 839.821 C 1004.36 860.052 1023.24 873.967 1043.47 870.895 z"/>
<path transform="translate(0,0)" fill="rgb(88,24,96)" d="M 957.583 1423.2 C 961.766 1423.05 959.997 1422.49 963.24 1424.28 C 966.163 1428.34 966.794 1433.57 967.919 1438.6 C 962.955 1439.67 955.42 1440.72 951.454 1443.48 C 961.595 1466.21 954.56 1487.29 927.123 1491.17 C 920.519 1492.1 911.6 1489.77 905.649 1492.75 C 903.313 1496.25 904.01 1494.35 903.763 1498.76 C 904.261 1499.77 904.509 1501.1 905.712 1501.33 C 923.953 1504.82 959.069 1496.39 965.114 1520.9 C 968.258 1533.65 963.434 1545.66 952.22 1552.11 C 944.892 1556.32 939.628 1557.19 931.368 1558.93 C 911.197 1559.39 870.691 1561.84 876.005 1528.52 C 876.901 1522.91 886.298 1519.1 890.981 1516.92 C 877.702 1504.79 882.081 1497.54 892.993 1486.01 C 859.933 1453.01 896.761 1417.24 937.536 1433.56 C 945.087 1427.8 948.849 1426.55 957.583 1423.2 z M 937.559 1538.98 C 942.578 1535.44 946.561 1532.77 943.751 1526.53 C 935.237 1519.16 912.485 1521.02 900.657 1520.95 C 886.377 1546.17 923.521 1543.74 937.559 1538.98 z M 922.557 1475.81 C 930.802 1473.84 935.968 1465.65 934.191 1457.36 C 932.414 1449.07 924.344 1443.72 916.017 1445.31 C 910.456 1446.36 905.904 1450.35 904.123 1455.72 C 902.342 1461.1 903.61 1467.01 907.438 1471.18 C 911.265 1475.36 917.051 1477.13 922.557 1475.81 z"/>
<path transform="translate(0,0)" fill="rgb(88,24,96)" d="M 1414.63 1393.04 C 1422.43 1392.6 1430.7 1392.82 1438.55 1392.89 C 1437.89 1409.08 1438.12 1425.91 1438.12 1442.17 C 1444.68 1435.87 1448.9 1432.31 1458.48 1430.37 C 1467.99 1428.47 1477.87 1430.6 1485.75 1436.25 C 1509.7 1453.36 1506.81 1489.3 1490.83 1510.91 C 1489.29 1512.24 1487.7 1513.51 1486.07 1514.73 C 1470.45 1526.33 1448.22 1524.18 1436.63 1507.95 L 1432.92 1521.08 C 1427.17 1520.7 1420.19 1519.65 1414.39 1518.91 C 1413.96 1479.3 1413.25 1432.49 1414.63 1393.04 z M 1460.17 1503.09 C 1488.49 1493.83 1483.78 1450.31 1455.6 1449.07 C 1427.11 1457.59 1434.1 1502.62 1460.17 1503.09 z"/>
<path transform="translate(0,0)" fill="rgb(88,24,96)" d="M 1236.87 645.331 C 1243.61 644.699 1254.53 647.006 1260.17 650.593 C 1299.59 675.693 1275.79 737.203 1229.19 726.505 C 1222.83 725.044 1218.36 722.482 1213.07 718.858 C 1191.09 734.029 1160.76 758.591 1138.66 775.097 L 1117.13 791.995 C 1112.86 786.912 1109.65 782.877 1105.77 777.499 C 1121.27 764.619 1139.3 751.468 1155.34 739.089 C 1169.5 728.157 1186.31 714.817 1201.02 704.985 C 1191.65 674.429 1204.45 650.515 1236.87 645.331 z M 1242.54 708.542 C 1250.58 707.336 1257.34 701.873 1260.21 694.263 C 1263.07 686.653 1261.59 678.088 1256.35 671.877 C 1251.1 665.666 1242.9 662.782 1234.92 664.339 C 1222.94 666.674 1215.03 678.148 1217.1 690.168 C 1219.18 702.189 1230.48 710.351 1242.54 708.542 z"/>
<path transform="translate(0,0)" fill="rgb(88,24,96)" d="M 1255.81 792.337 C 1275.41 791.326 1291.54 796.533 1299.73 816.113 C 1304.26 826.75 1304.15 838.795 1299.42 849.346 C 1294.98 859.387 1286.69 867.218 1276.41 871.07 C 1251.57 880.232 1229.52 867.505 1221.09 843.255 C 1217.21 843.441 1213.25 843.404 1209.36 843.429 C 1182.58 842.403 1154.9 843.842 1128.01 843.197 L 1127.97 824.72 C 1158.86 825.127 1189.75 825.21 1220.64 824.967 C 1225.97 805.963 1236.19 796.294 1255.81 792.337 z M 1266.57 854.485 C 1274.47 852.721 1280.8 846.798 1283.07 839.024 C 1285.35 831.249 1283.22 822.853 1277.51 817.104 C 1271.8 811.355 1263.42 809.163 1255.63 811.382 C 1244.06 814.678 1237.2 826.581 1240.16 838.246 C 1243.12 849.911 1254.82 857.107 1266.57 854.485 z"/>
<path transform="translate(0,0)" fill="rgb(88,24,96)" d="M 1113.66 887.686 C 1133.79 903.634 1161.25 927.381 1179.49 944.827 C 1187.79 939.558 1196.09 936.814 1206.05 937.419 C 1216.94 937.981 1227.14 942.934 1234.32 951.145 C 1241.7 959.736 1245.27 970.963 1244.19 982.239 C 1243.02 995.215 1237.43 1003.69 1227.8 1011.73 C 1224.46 1013.92 1221.86 1015.42 1218.09 1016.86 C 1207.22 1020.91 1195.15 1020.3 1184.75 1015.17 C 1175 1010.37 1167.58 1001.85 1164.16 991.536 C 1160.34 979.917 1161.92 968.599 1167.56 957.928 C 1150.25 943.554 1117.42 916.937 1102.71 900.967 C 1106.25 895.526 1109.27 892.452 1113.66 887.686 z M 1208.53 1000.09 C 1220.55 997.233 1228.01 985.206 1225.22 973.171 C 1222.43 961.136 1210.45 953.612 1198.4 956.33 C 1186.25 959.07 1178.65 971.174 1181.46 983.308 C 1184.27 995.442 1196.42 1002.97 1208.53 1000.09 z"/>
<path transform="translate(0,0)" fill="rgb(88,24,96)" d="M 1172.96 1401.81 C 1178.31 1401.64 1192.6 1400.46 1196.29 1403.3 C 1197.61 1411.18 1197.16 1439.53 1197.21 1448.77 C 1209.63 1447.39 1237.3 1448.19 1250.85 1448.25 C 1250.36 1434.01 1250.54 1416.17 1251.11 1401.95 C 1259.16 1401.78 1267.21 1401.82 1275.26 1402.08 L 1275.15 1480.33 C 1275.13 1489.71 1275.75 1510.31 1274.64 1518.72 C 1271.99 1520.49 1271.38 1519.84 1267.56 1519.91 L 1250.93 1519.87 C 1250.34 1508.37 1250.08 1480.03 1250.85 1469.06 C 1233.9 1468.22 1214.88 1468.85 1197.73 1469.1 C 1197.83 1485.97 1197.72 1502.85 1197.41 1519.72 C 1189.57 1520.03 1181.16 1519.85 1173.27 1519.81 C 1174.32 1501.61 1173.69 1477.93 1173.64 1459.25 C 1173.59 1441.99 1174.17 1418.51 1172.96 1401.81 z"/>
<path transform="translate(0,0)" fill="rgb(88,24,96)" d="M 995.541 1392.49 L 1008.47 1392.67 C 1008.74 1402.94 1010.16 1434.43 1008.08 1443.66 C 1015.6 1435.35 1022.62 1429.94 1034.2 1429.46 C 1076.43 1427.71 1067.34 1471.82 1068.35 1499.46 C 1068.61 1506.62 1068.37 1512.98 1068.37 1519.62 C 1060.7 1519.9 1052.66 1519.75 1044.95 1519.71 C 1045.44 1506.19 1045.15 1491.22 1045.13 1477.58 L 1045.1 1471.31 C 1044.79 1444.73 1024.45 1443.57 1008.88 1462.06 C 1008.26 1480.52 1008.72 1500.51 1008.82 1519.08 C 1000.9 1519.52 992.953 1519.38 985.016 1519.34 C 986.567 1490.5 984.94 1458.83 985.53 1429.72 C 985.764 1418.15 984.953 1405.15 985.971 1393.79 C 988.266 1392.32 992.569 1392.59 995.541 1392.49 z"/>
<path transform="translate(0,0)" fill="rgb(88,24,96)" d="M 674.948 1430.26 C 676.239 1430.15 677.533 1430.07 678.829 1430.02 C 716.231 1428.65 712.019 1463.54 711.945 1489.51 C 711.916 1499.62 712.003 1509.87 712.038 1519.97 L 688.808 1519.92 C 687.332 1498.53 699.007 1428.53 658.147 1455.27 L 653.033 1461.77 C 652.464 1480.71 652.673 1500.68 652.578 1519.69 L 628.821 1519.91 L 628.387 1432.01 C 635.106 1431.6 641.944 1431.78 648.683 1431.83 L 651.146 1445.13 C 659.694 1435.73 661.84 1432.82 674.948 1430.26 z"/>
<path transform="translate(0,0)" fill="rgb(88,24,96)" d="M 1367.85 1431.37 C 1374.01 1431.39 1380.81 1431.79 1387.01 1432.03 C 1386.28 1460.67 1386.83 1491.01 1387.11 1519.69 L 1366.56 1520 C 1366.14 1514.94 1365.65 1509.9 1365.09 1504.86 C 1353.49 1521.65 1330.91 1529.77 1314 1514.66 C 1304.63 1506.3 1304.46 1493.92 1304.29 1482.27 L 1304.12 1432.63 C 1312.36 1431.56 1319.44 1431.86 1327.66 1432.4 C 1328.52 1450.88 1325.69 1476.01 1329.91 1493.56 C 1330.73 1496.29 1334.71 1500.14 1337.5 1500.63 C 1377.97 1507.67 1357.98 1455.02 1364.03 1433.43 C 1364.43 1432 1366.49 1431.85 1367.85 1431.37 z"/>
<path transform="translate(0,0)" fill="rgb(88,24,96)" d="M 768.672 1429.41 C 779.699 1428.75 805.023 1432.79 807.664 1445.66 C 806.856 1451.4 799.695 1456.58 795.21 1460.52 C 786.475 1450.24 774.761 1443.91 760.237 1450.5 C 758.382 1451.34 758.389 1453.59 758.273 1455.32 C 764.447 1470.6 808.558 1462.95 809.785 1488.32 C 810.988 1513.21 793.91 1520.74 772.041 1522.03 C 771.127 1522.04 770.214 1522.04 769.3 1522.03 C 750.509 1521.73 743.04 1516.66 730.563 1503.87 C 755.034 1481 742.519 1499.06 770.44 1504.82 C 777.487 1506.28 785.854 1502.08 786.772 1494.35 C 779.898 1479.43 738.037 1489.7 735.5 1461.51 C 733.421 1438.41 749.341 1431.77 768.672 1429.41 z"/>
<path transform="translate(0,0)" fill="rgb(88,24,96)" d="M 1104.51 1406.14 L 1124.98 1406 C 1124.76 1414.54 1124.94 1423.44 1124.99 1432.01 C 1133.11 1431.8 1141.25 1432 1149.38 1432.14 L 1149.05 1450.46 C 1141.12 1450.58 1133.19 1450.78 1125.26 1451.05 C 1125.02 1463.14 1120.79 1492.76 1131.67 1500.31 C 1136.48 1503.65 1142.87 1501.47 1148.01 1499.91 C 1150.26 1505.4 1152.12 1510.65 1154.1 1516.24 C 1142.57 1523.77 1118.06 1525.29 1108.85 1514.15 C 1097.9 1500.88 1101.41 1467.89 1101.73 1450.85 C 1096.67 1450.69 1091.08 1450.91 1085.97 1451 L 1086 1432.85 L 1102.27 1431.75 C 1102.47 1424.21 1102.36 1413.05 1104.51 1406.14 z"/>
<path transform="translate(0,0)" fill="rgb(88,24,96)" d="M 574.937 1402.13 C 582.759 1402 590.781 1402.09 598.621 1402.09 C 597.412 1439.18 598.748 1482.03 598.638 1519.75 L 574.846 1519.83 C 573.446 1487.64 573.863 1433.99 574.937 1402.13 z"/>
<path transform="translate(0,0)" fill="rgb(88,24,96)" d="M 832.084 1432.13 C 839.758 1431.94 847.68 1432.08 855.379 1432.12 C 855.53 1461.23 855.529 1490.35 855.376 1519.47 C 848.329 1520.18 839.67 1519.94 832.441 1519.93 C 831.604 1491.33 832.291 1460.98 832.084 1432.13 z"/>
<path transform="translate(0,0)" fill="rgb(88,24,96)" d="M 838.718 1391.11 C 861.906 1389.43 865.416 1410.69 847.01 1418.41 C 840.896 1418.85 835.057 1417.91 831.373 1412.44 C 829.192 1409.19 828.524 1405.15 829.541 1401.37 C 831.02 1395.7 833.971 1393.96 838.718 1391.11 z"/>
</svg>